<?xml version="1.0" encoding="UTF-8" standalone="no"?>
<!DOCTYPE svg PUBLIC "-//W3C//DTD SVG 1.1//EN"
 "http://www.w3.org/Graphics/SVG/1.1/DTD/svg11.dtd">
<!-- Generated by graphviz version 2.26.3 (20100126.1600)
 -->
<!-- Title: G Pages: 1 -->
<svg width="916pt" height="2048pt"
 viewBox="0.00 0.00 916.00 2048.00" xmlns="http://www.w3.org/2000/svg" xmlns:xlink="http://www.w3.org/1999/xlink">
<g id="graph1" class="graph" transform="scale(1 1) rotate(0) translate(4 2044)">
<title>G</title>
<polygon fill="white" stroke="white" points="-4,5 -4,-2044 913,-2044 913,5 -4,5"/>
<g id="graph2" class="cluster"><title>cluster_Global</title>
<polyline fill="none" stroke="gray" points="407,-98 888,-98 "/>
<path fill="none" stroke="gray" d="M888,-98C894,-98 900,-104 900,-110"/>
<polyline fill="none" stroke="gray" points="900,-110 900,-2020 "/>
<path fill="none" stroke="gray" d="M900,-2020C900,-2026 894,-2032 888,-2032"/>
<polyline fill="none" stroke="gray" points="888,-2032 407,-2032 "/>
<path fill="none" stroke="gray" d="M407,-2032C401,-2032 395,-2026 395,-2020"/>
<polyline fill="none" stroke="gray" points="395,-2020 395,-110 "/>
<path fill="none" stroke="gray" d="M395,-110C395,-104 401,-98 407,-98"/>
<text text-anchor="middle" x="647.5" y="-2018.1" font-family="Times Roman,serif" font-size="11.00" fill="gray">Global</text>
</g>
<g id="graph3" class="cluster"><title>cluster_\Nova</title>
<polyline fill="none" stroke="gray" points="415,-106 880,-106 "/>
<path fill="none" stroke="gray" d="M880,-106C886,-106 892,-112 892,-118"/>
<polyline fill="none" stroke="gray" points="892,-118 892,-1990 "/>
<path fill="none" stroke="gray" d="M892,-1990C892,-1996 886,-2002 880,-2002"/>
<polyline fill="none" stroke="gray" points="880,-2002 415,-2002 "/>
<path fill="none" stroke="gray" d="M415,-2002C409,-2002 403,-1996 403,-1990"/>
<polyline fill="none" stroke="gray" points="403,-1990 403,-118 "/>
<path fill="none" stroke="gray" d="M403,-118C403,-112 409,-106 415,-106"/>
<text text-anchor="middle" x="647.5" y="-1988.1" font-family="Times Roman,serif" font-size="11.00" fill="gray">Nova</text>
</g>
<g id="graph4" class="cluster"><title>cluster_\Nova\Apis</title>
<polyline fill="none" stroke="gray" points="460,-1898 835,-1898 "/>
<path fill="none" stroke="gray" d="M835,-1898C841,-1898 847,-1904 847,-1910"/>
<polyline fill="none" stroke="gray" points="847,-1910 847,-1960 "/>
<path fill="none" stroke="gray" d="M847,-1960C847,-1966 841,-1972 835,-1972"/>
<polyline fill="none" stroke="gray" points="835,-1972 460,-1972 "/>
<path fill="none" stroke="gray" d="M460,-1972C454,-1972 448,-1966 448,-1960"/>
<polyline fill="none" stroke="gray" points="448,-1960 448,-1910 "/>
<path fill="none" stroke="gray" d="M448,-1910C448,-1904 454,-1898 460,-1898"/>
<text text-anchor="middle" x="647.5" y="-1958.1" font-family="Times Roman,serif" font-size="11.00" fill="gray">Apis</text>
</g>
<g id="graph5" class="cluster"><title>cluster_\Nova\Controllers</title>
<polyline fill="none" stroke="gray" points="446,-1492 853,-1492 "/>
<path fill="none" stroke="gray" d="M853,-1492C859,-1492 865,-1498 865,-1504"/>
<polyline fill="none" stroke="gray" points="865,-1504 865,-1878 "/>
<path fill="none" stroke="gray" d="M865,-1878C865,-1884 859,-1890 853,-1890"/>
<polyline fill="none" stroke="gray" points="853,-1890 446,-1890 "/>
<path fill="none" stroke="gray" d="M446,-1890C440,-1890 434,-1884 434,-1878"/>
<polyline fill="none" stroke="gray" points="434,-1878 434,-1504 "/>
<path fill="none" stroke="gray" d="M434,-1504C434,-1498 440,-1492 446,-1492"/>
<text text-anchor="middle" x="649.5" y="-1876.1" font-family="Times Roman,serif" font-size="11.00" fill="gray">Controllers</text>
</g>
<g id="graph6" class="cluster"><title>cluster_\Nova\Encoders</title>
<polyline fill="none" stroke="gray" points="462,-1410 838,-1410 "/>
<path fill="none" stroke="gray" d="M838,-1410C844,-1410 850,-1416 850,-1422"/>
<polyline fill="none" stroke="gray" points="850,-1422 850,-1472 "/>
<path fill="none" stroke="gray" d="M850,-1472C850,-1478 844,-1484 838,-1484"/>
<polyline fill="none" stroke="gray" points="838,-1484 462,-1484 "/>
<path fill="none" stroke="gray" d="M462,-1484C456,-1484 450,-1478 450,-1472"/>
<polyline fill="none" stroke="gray" points="450,-1472 450,-1422 "/>
<path fill="none" stroke="gray" d="M450,-1422C450,-1416 456,-1410 462,-1410"/>
<text text-anchor="middle" x="650" y="-1470.1" font-family="Times Roman,serif" font-size="11.00" fill="gray">Encoders</text>
</g>
<g id="graph7" class="cluster"><title>cluster_\Nova\Http</title>
<polyline fill="none" stroke="gray" points="749,-1328 821,-1328 "/>
<path fill="none" stroke="gray" d="M821,-1328C827,-1328 833,-1334 833,-1340"/>
<polyline fill="none" stroke="gray" points="833,-1340 833,-1390 "/>
<path fill="none" stroke="gray" d="M833,-1390C833,-1396 827,-1402 821,-1402"/>
<polyline fill="none" stroke="gray" points="821,-1402 749,-1402 "/>
<path fill="none" stroke="gray" d="M749,-1402C743,-1402 737,-1396 737,-1390"/>
<polyline fill="none" stroke="gray" points="737,-1390 737,-1340 "/>
<path fill="none" stroke="gray" d="M737,-1340C737,-1334 743,-1328 749,-1328"/>
<text text-anchor="middle" x="785" y="-1388.1" font-family="Times Roman,serif" font-size="11.00" fill="gray">Http</text>
</g>
<g id="graph8" class="cluster"><title>cluster_\Nova\IO</title>
<polyline fill="none" stroke="gray" points="750,-1246 820,-1246 "/>
<path fill="none" stroke="gray" d="M820,-1246C826,-1246 832,-1252 832,-1258"/>
<polyline fill="none" stroke="gray" points="832,-1258 832,-1308 "/>
<path fill="none" stroke="gray" d="M832,-1308C832,-1314 826,-1320 820,-1320"/>
<polyline fill="none" stroke="gray" points="820,-1320 750,-1320 "/>
<path fill="none" stroke="gray" d="M750,-1320C744,-1320 738,-1314 738,-1308"/>
<polyline fill="none" stroke="gray" points="738,-1308 738,-1258 "/>
<path fill="none" stroke="gray" d="M738,-1258C738,-1252 744,-1246 750,-1246"/>
<text text-anchor="middle" x="785" y="-1306.1" font-family="Times Roman,serif" font-size="11.00" fill="gray">IO</text>
</g>
<g id="graph9" class="cluster"><title>cluster_\Nova\Models</title>
<polyline fill="none" stroke="gray" points="456,-840 827,-840 "/>
<path fill="none" stroke="gray" d="M827,-840C833,-840 839,-846 839,-852"/>
<polyline fill="none" stroke="gray" points="839,-852 839,-1226 "/>
<path fill="none" stroke="gray" d="M839,-1226C839,-1232 833,-1238 827,-1238"/>
<polyline fill="none" stroke="gray" points="827,-1238 456,-1238 "/>
<path fill="none" stroke="gray" d="M456,-1238C450,-1238 444,-1232 444,-1226"/>
<polyline fill="none" stroke="gray" points="444,-1226 444,-852 "/>
<path fill="none" stroke="gray" d="M444,-852C444,-846 450,-840 456,-840"/>
<text text-anchor="middle" x="641.5" y="-1224.1" font-family="Times Roman,serif" font-size="11.00" fill="gray">Models</text>
</g>
<g id="graph10" class="cluster"><title>cluster_\Nova\Plugins</title>
<polyline fill="none" stroke="gray" points="758,-160 812,-160 "/>
<path fill="none" stroke="gray" d="M812,-160C818,-160 824,-166 824,-172"/>
<polyline fill="none" stroke="gray" points="824,-172 824,-276 "/>
<path fill="none" stroke="gray" d="M824,-276C824,-282 818,-288 812,-288"/>
<polyline fill="none" stroke="gray" points="812,-288 758,-288 "/>
<path fill="none" stroke="gray" d="M758,-288C752,-288 746,-282 746,-276"/>
<polyline fill="none" stroke="gray" points="746,-276 746,-172 "/>
<path fill="none" stroke="gray" d="M746,-172C746,-166 752,-160 758,-160"/>
<text text-anchor="middle" x="785" y="-274.1" font-family="Times Roman,serif" font-size="11.00" fill="gray">Plugins</text>
</g>
<g id="graph11" class="cluster"><title>cluster_\Nova\Routes</title>
<polyline fill="none" stroke="gray" points="437,-596 845,-596 "/>
<path fill="none" stroke="gray" d="M845,-596C851,-596 857,-602 857,-608"/>
<polyline fill="none" stroke="gray" points="857,-608 857,-820 "/>
<path fill="none" stroke="gray" d="M857,-820C857,-826 851,-832 845,-832"/>
<polyline fill="none" stroke="gray" points="845,-832 437,-832 "/>
<path fill="none" stroke="gray" d="M437,-832C431,-832 425,-826 425,-820"/>
<polyline fill="none" stroke="gray" points="425,-820 425,-608 "/>
<path fill="none" stroke="gray" d="M425,-608C425,-602 431,-596 437,-596"/>
<text text-anchor="middle" x="641" y="-818.1" font-family="Times Roman,serif" font-size="11.00" fill="gray">Routes</text>
</g>
<g id="graph12" class="cluster"><title>cluster_\Nova\Scrapers</title>
<polyline fill="none" stroke="gray" points="448,-460 842,-460 "/>
<path fill="none" stroke="gray" d="M842,-460C848,-460 854,-466 854,-472"/>
<polyline fill="none" stroke="gray" points="854,-472 854,-576 "/>
<path fill="none" stroke="gray" d="M854,-576C854,-582 848,-588 842,-588"/>
<polyline fill="none" stroke="gray" points="842,-588 448,-588 "/>
<path fill="none" stroke="gray" d="M448,-588C442,-588 436,-582 436,-576"/>
<polyline fill="none" stroke="gray" points="436,-576 436,-472 "/>
<path fill="none" stroke="gray" d="M436,-472C436,-466 442,-460 448,-460"/>
<text text-anchor="middle" x="645" y="-574.1" font-family="Times Roman,serif" font-size="11.00" fill="gray">Scrapers</text>
</g>
<g id="graph13" class="cluster"><title>cluster_\Nova\Security</title>
<polyline fill="none" stroke="gray" points="423,-378 872,-378 "/>
<path fill="none" stroke="gray" d="M872,-378C878,-378 884,-384 884,-390"/>
<polyline fill="none" stroke="gray" points="884,-390 884,-440 "/>
<path fill="none" stroke="gray" d="M884,-440C884,-446 878,-452 872,-452"/>
<polyline fill="none" stroke="gray" points="872,-452 423,-452 "/>
<path fill="none" stroke="gray" d="M423,-452C417,-452 411,-446 411,-440"/>
<polyline fill="none" stroke="gray" points="411,-440 411,-390 "/>
<path fill="none" stroke="gray" d="M411,-390C411,-384 417,-378 423,-378"/>
<text text-anchor="middle" x="647.5" y="-438.1" font-family="Times Roman,serif" font-size="11.00" fill="gray">Security</text>
</g>
<g id="graph14" class="cluster"><title>cluster_\Nova\Services</title>
<polyline fill="none" stroke="gray" points="449,-296 825,-296 "/>
<path fill="none" stroke="gray" d="M825,-296C831,-296 837,-302 837,-308"/>
<polyline fill="none" stroke="gray" points="837,-308 837,-358 "/>
<path fill="none" stroke="gray" d="M837,-358C837,-364 831,-370 825,-370"/>
<polyline fill="none" stroke="gray" points="825,-370 449,-370 "/>
<path fill="none" stroke="gray" d="M449,-370C443,-370 437,-364 437,-358"/>
<polyline fill="none" stroke="gray" points="437,-358 437,-308 "/>
<path fill="none" stroke="gray" d="M437,-308C437,-302 443,-296 449,-296"/>
<text text-anchor="middle" x="637" y="-356.1" font-family="Times Roman,serif" font-size="11.00" fill="gray">Services</text>
</g>
<!-- \\Nova\\Apis\\TmdbApiAdapter -->
<g id="node4" class="node"><title>\\Nova\\Apis\\TmdbApiAdapter</title>
<polygon fill="none" stroke="black" points="839,-1942 731,-1942 731,-1906 839,-1906 839,-1942"/>
<text text-anchor="middle" x="785" y="-1921.1" font-family="Times Roman,serif" font-size="11.00">TmdbApiAdapter</text>
</g>
<!-- \\Nova\\Apis\\ITmdbApi -->
<g id="node5" class="node"><title>\\Nova\\Apis\\ITmdbApi</title>
<polygon fill="none" stroke="black" points="523,-1942 457,-1942 457,-1906 523,-1906 523,-1942"/>
<text text-anchor="middle" x="490" y="-1921.1" font-family="Times Roman,serif" font-size="11.00">ITmdbApi</text>
</g>
<!-- \\Nova\\Apis\\TmdbApiAdapter&#45;&gt;\\Nova\\Apis\\ITmdbApi -->
<g id="edge15" class="edge"><title>\\Nova\\Apis\\TmdbApiAdapter&#45;&gt;\\Nova\\Apis\\ITmdbApi</title>
<path fill="none" stroke="black" stroke-dasharray="1,5" d="M730.892,-1924C674.249,-1924 586.388,-1924 533.895,-1924"/>
<polygon fill="none" stroke="black" points="533.571,-1920.5 523.571,-1924 533.571,-1927.5 533.571,-1920.5"/>
</g>
<!-- \\Nova\\Controllers\\ControllerBase -->
<g id="node7" class="node"><title>\\Nova\\Controllers\\ControllerBase</title>
<polygon fill="none" stroke="black" points="538,-1698 442,-1698 442,-1662 538,-1662 538,-1698"/>
<text text-anchor="middle" x="490" y="-1677.1" font-family="Times Roman,serif" font-size="11.00">ControllerBase</text>
</g>
<!-- \\Phalcon\\Mvc\\Controller -->
<g id="node53" class="node"><title>\\Phalcon\\Mvc\\Controller</title>
<ellipse fill="none" stroke="black" cx="143" cy="-1680" rx="125.079" ry="18"/>
<text text-anchor="middle" x="143" y="-1675.9" font-family="Times Roman,serif" font-size="14.00" fill="gray">\Phalcon\Mvc\Controller</text>
</g>
<!-- \\Nova\\Controllers\\ControllerBase&#45;&gt;\\Phalcon\\Mvc\\Controller -->
<g id="edge17" class="edge"><title>\\Nova\\Controllers\\ControllerBase&#45;&gt;\\Phalcon\\Mvc\\Controller</title>
<path fill="none" stroke="black" d="M441.751,-1680C399.501,-1680 336.033,-1680 278.448,-1680"/>
<polygon fill="none" stroke="black" points="278.145,-1676.5 268.145,-1680 278.145,-1683.5 278.145,-1676.5"/>
</g>
<!-- \\Nova\\Controllers\\DirectoryController -->
<g id="node8" class="node"><title>\\Nova\\Controllers\\DirectoryController</title>
<polygon fill="none" stroke="black" points="844,-1860 726,-1860 726,-1824 844,-1824 844,-1860"/>
<text text-anchor="middle" x="785" y="-1839.1" font-family="Times Roman,serif" font-size="11.00">DirectoryController</text>
</g>
<!-- \\Nova\\Controllers\\DirectoryController&#45;&gt;\\Nova\\Controllers\\ControllerBase -->
<g id="edge19" class="edge"><title>\\Nova\\Controllers\\DirectoryController&#45;&gt;\\Nova\\Controllers\\ControllerBase</title>
<path fill="none" stroke="black" d="M725.315,-1827.06C714.679,-1823.62 703.856,-1819.6 694,-1815 628.163,-1784.29 559.225,-1734.34 520.726,-1704.58"/>
<polygon fill="none" stroke="black" points="522.567,-1701.58 512.528,-1698.19 518.264,-1707.1 522.567,-1701.58"/>
</g>
<!-- \\Nova\\Controllers\\DirectoryTypeController -->
<g id="node9" class="node"><title>\\Nova\\Controllers\\DirectoryTypeController</title>
<polygon fill="none" stroke="black" points="856,-1806 714,-1806 714,-1770 856,-1770 856,-1806"/>
<text text-anchor="middle" x="785" y="-1785.1" font-family="Times Roman,serif" font-size="11.00">DirectoryTypeController</text>
</g>
<!-- \\Nova\\Controllers\\DirectoryTypeController&#45;&gt;\\Nova\\Controllers\\ControllerBase -->
<g id="edge21" class="edge"><title>\\Nova\\Controllers\\DirectoryTypeController&#45;&gt;\\Nova\\Controllers\\ControllerBase</title>
<path fill="none" stroke="black" d="M721.617,-1769.99C712.312,-1767.11 702.877,-1764.07 694,-1761 641.382,-1742.79 582.37,-1718.98 541.406,-1701.89"/>
<polygon fill="none" stroke="black" points="542.749,-1698.66 532.173,-1698.03 540.046,-1705.12 542.749,-1698.66"/>
</g>
<!-- \\Nova\\Controllers\\ErrorController -->
<g id="node10" class="node"><title>\\Nova\\Controllers\\ErrorController</title>
<polygon fill="none" stroke="black" points="833,-1752 737,-1752 737,-1716 833,-1716 833,-1752"/>
<text text-anchor="middle" x="785" y="-1731.1" font-family="Times Roman,serif" font-size="11.00">ErrorController</text>
</g>
<!-- \\Nova\\Controllers\\ErrorController&#45;&gt;\\Nova\\Controllers\\ControllerBase -->
<g id="edge23" class="edge"><title>\\Nova\\Controllers\\ErrorController&#45;&gt;\\Nova\\Controllers\\ControllerBase</title>
<path fill="none" stroke="black" d="M736.947,-1725.2C685.304,-1715.75 603.217,-1700.72 548.014,-1690.62"/>
<polygon fill="none" stroke="black" points="548.5,-1687.15 538.033,-1688.79 547.239,-1694.04 548.5,-1687.15"/>
</g>
<!-- \\Nova\\Controllers\\ImageController -->
<g id="node11" class="node"><title>\\Nova\\Controllers\\ImageController</title>
<polygon fill="none" stroke="black" points="836,-1698 734,-1698 734,-1662 836,-1662 836,-1698"/>
<text text-anchor="middle" x="785" y="-1677.1" font-family="Times Roman,serif" font-size="11.00">ImageController</text>
</g>
<!-- \\Nova\\Controllers\\ImageController&#45;&gt;\\Nova\\Controllers\\ControllerBase -->
<g id="edge25" class="edge"><title>\\Nova\\Controllers\\ImageController&#45;&gt;\\Nova\\Controllers\\ControllerBase</title>
<path fill="none" stroke="black" d="M733.277,-1680C681.583,-1680 602.236,-1680 548.328,-1680"/>
<polygon fill="none" stroke="black" points="548.237,-1676.5 538.237,-1680 548.237,-1683.5 548.237,-1676.5"/>
</g>
<!-- \\Nova\\Controllers\\IndexController -->
<g id="node12" class="node"><title>\\Nova\\Controllers\\IndexController</title>
<polygon fill="none" stroke="black" points="834,-1644 736,-1644 736,-1608 834,-1608 834,-1644"/>
<text text-anchor="middle" x="785" y="-1623.1" font-family="Times Roman,serif" font-size="11.00">IndexController</text>
</g>
<!-- \\Nova\\Controllers\\IndexController&#45;&gt;\\Nova\\Controllers\\ControllerBase -->
<g id="edge27" class="edge"><title>\\Nova\\Controllers\\IndexController&#45;&gt;\\Nova\\Controllers\\ControllerBase</title>
<path fill="none" stroke="black" d="M735.291,-1635.1C683.66,-1644.55 602.934,-1659.33 548.322,-1669.32"/>
<polygon fill="none" stroke="black" points="547.647,-1665.89 538.441,-1671.13 548.908,-1672.77 547.647,-1665.89"/>
</g>
<!-- \\Nova\\Controllers\\MovieController -->
<g id="node13" class="node"><title>\\Nova\\Controllers\\MovieController</title>
<polygon fill="none" stroke="black" points="835,-1590 735,-1590 735,-1554 835,-1554 835,-1590"/>
<text text-anchor="middle" x="785" y="-1569.1" font-family="Times Roman,serif" font-size="11.00">MovieController</text>
</g>
<!-- \\Nova\\Controllers\\MovieController&#45;&gt;\\Nova\\Controllers\\ControllerBase -->
<g id="edge29" class="edge"><title>\\Nova\\Controllers\\MovieController&#45;&gt;\\Nova\\Controllers\\ControllerBase</title>
<path fill="none" stroke="black" d="M734.203,-1586.2C721.035,-1590.12 706.926,-1594.53 694,-1599 641.382,-1617.21 582.37,-1641.02 541.406,-1658.11"/>
<polygon fill="none" stroke="black" points="540.046,-1654.88 532.173,-1661.97 542.749,-1661.34 540.046,-1654.88"/>
</g>
<!-- \\Nova\\Controllers\\SessionController -->
<g id="node14" class="node"><title>\\Nova\\Controllers\\SessionController</title>
<polygon fill="none" stroke="black" points="840,-1536 730,-1536 730,-1500 840,-1500 840,-1536"/>
<text text-anchor="middle" x="785" y="-1515.1" font-family="Times Roman,serif" font-size="11.00">SessionController</text>
</g>
<!-- \\Nova\\Controllers\\SessionController&#45;&gt;\\Nova\\Controllers\\ControllerBase -->
<g id="edge31" class="edge"><title>\\Nova\\Controllers\\SessionController&#45;&gt;\\Nova\\Controllers\\ControllerBase</title>
<path fill="none" stroke="black" d="M729.172,-1531.72C717.317,-1535.41 705.051,-1539.84 694,-1545 628.163,-1575.71 559.225,-1625.66 520.726,-1655.42"/>
<polygon fill="none" stroke="black" points="518.264,-1652.9 512.528,-1661.81 522.567,-1658.42 518.264,-1652.9"/>
</g>
<!-- \\Nova\\Encoders\\XmlMovieEncoder -->
<g id="node16" class="node"><title>\\Nova\\Encoders\\XmlMovieEncoder</title>
<polygon fill="none" stroke="black" points="841,-1454 729,-1454 729,-1418 841,-1418 841,-1454"/>
<text text-anchor="middle" x="785" y="-1433.1" font-family="Times Roman,serif" font-size="11.00">XmlMovieEncoder</text>
</g>
<!-- \\Nova\\Encoders\\IEncoder -->
<g id="node17" class="node"><title>\\Nova\\Encoders\\IEncoder</title>
<polygon fill="none" stroke="black" points="521,-1454 459,-1454 459,-1418 521,-1418 521,-1454"/>
<text text-anchor="middle" x="490" y="-1433.1" font-family="Times Roman,serif" font-size="11.00">IEncoder</text>
</g>
<!-- \\Nova\\Encoders\\XmlMovieEncoder&#45;&gt;\\Nova\\Encoders\\IEncoder -->
<g id="edge33" class="edge"><title>\\Nova\\Encoders\\XmlMovieEncoder&#45;&gt;\\Nova\\Encoders\\IEncoder</title>
<path fill="none" stroke="black" stroke-dasharray="1,5" d="M728.47,-1436C671.028,-1436 583.387,-1436 531.881,-1436"/>
<polygon fill="none" stroke="black" points="531.772,-1432.5 521.772,-1436 531.772,-1439.5 531.772,-1432.5"/>
</g>
<!-- \\Nova\\Http\\StatusCode -->
<g id="node19" class="node"><title>\\Nova\\Http\\StatusCode</title>
<polygon fill="none" stroke="black" points="825,-1372 745,-1372 745,-1336 825,-1336 825,-1372"/>
<text text-anchor="middle" x="785" y="-1351.1" font-family="Times Roman,serif" font-size="11.00">StatusCode</text>
</g>
<!-- \\Nova\\IO\\FileStorage -->
<g id="node21" class="node"><title>\\Nova\\IO\\FileStorage</title>
<polygon fill="none" stroke="black" points="823,-1290 747,-1290 747,-1254 823,-1254 823,-1290"/>
<text text-anchor="middle" x="785" y="-1269.1" font-family="Times Roman,serif" font-size="11.00">FileStorage</text>
</g>
<!-- \\Nova\\Models\\Actor -->
<g id="node23" class="node"><title>\\Nova\\Models\\Actor</title>
<polygon fill="none" stroke="black" points="812,-1100 758,-1100 758,-1064 812,-1064 812,-1100"/>
<text text-anchor="middle" x="785" y="-1079.1" font-family="Times Roman,serif" font-size="11.00">Actor</text>
</g>
<!-- \\Nova\\Models\\ModelBase -->
<g id="node27" class="node"><title>\\Nova\\Models\\ModelBase</title>
<polygon fill="none" stroke="black" points="528,-1073 452,-1073 452,-1037 528,-1037 528,-1073"/>
<text text-anchor="middle" x="490" y="-1052.1" font-family="Times Roman,serif" font-size="11.00">ModelBase</text>
</g>
<!-- \\Nova\\Models\\Actor&#45;&gt;\\Nova\\Models\\ModelBase -->
<g id="edge35" class="edge"><title>\\Nova\\Models\\Actor&#45;&gt;\\Nova\\Models\\ModelBase</title>
<path fill="none" stroke="black" d="M757.776,-1079.51C707.784,-1074.93 600.754,-1065.14 538.204,-1059.41"/>
<polygon fill="none" stroke="black" points="538.466,-1055.92 528.188,-1058.5 537.828,-1062.89 538.466,-1055.92"/>
</g>
<!-- \\Nova\\Models\\AuthToken -->
<g id="node24" class="node"><title>\\Nova\\Models\\AuthToken</title>
<polygon fill="none" stroke="black" points="821,-1046 749,-1046 749,-1010 821,-1010 821,-1046"/>
<text text-anchor="middle" x="785" y="-1025.1" font-family="Times Roman,serif" font-size="11.00">AuthToken</text>
</g>
<!-- \\Nova\\Models\\AuthToken&#45;&gt;\\Nova\\Models\\ModelBase -->
<g id="edge37" class="edge"><title>\\Nova\\Models\\AuthToken&#45;&gt;\\Nova\\Models\\ModelBase</title>
<path fill="none" stroke="black" d="M748.827,-1031.31C695.996,-1036.15 597.61,-1045.15 538.536,-1050.56"/>
<polygon fill="none" stroke="black" points="537.979,-1047.09 528.339,-1051.49 538.617,-1054.06 537.979,-1047.09"/>
</g>
<!-- \\Nova\\Models\\Directory -->
<g id="node25" class="node"><title>\\Nova\\Models\\Directory</title>
<polygon fill="none" stroke="black" points="818,-992 752,-992 752,-956 818,-956 818,-992"/>
<text text-anchor="middle" x="785" y="-971.1" font-family="Times Roman,serif" font-size="11.00">Directory</text>
</g>
<!-- \\Nova\\Models\\Directory&#45;&gt;\\Nova\\Models\\ModelBase -->
<g id="edge39" class="edge"><title>\\Nova\\Models\\Directory&#45;&gt;\\Nova\\Models\\ModelBase</title>
<path fill="none" stroke="black" d="M751.733,-983.134C699.599,-997.449 598.407,-1025.23 538.265,-1041.75"/>
<polygon fill="none" stroke="black" points="536.973,-1038.47 528.257,-1044.5 538.826,-1045.22 536.973,-1038.47"/>
</g>
<!-- \\Nova\\Models\\DirectoryType -->
<g id="node26" class="node"><title>\\Nova\\Models\\DirectoryType</title>
<polygon fill="none" stroke="black" points="830,-884 740,-884 740,-848 830,-848 830,-884"/>
<text text-anchor="middle" x="785" y="-863.1" font-family="Times Roman,serif" font-size="11.00">DirectoryType</text>
</g>
<!-- \\Nova\\Models\\DirectoryType&#45;&gt;\\Nova\\Models\\ModelBase -->
<g id="edge41" class="edge"><title>\\Nova\\Models\\DirectoryType&#45;&gt;\\Nova\\Models\\ModelBase</title>
<path fill="none" stroke="black" d="M739.239,-875.899C724.339,-880.075 708.034,-885.698 694,-893 622.273,-930.322 551.235,-994.526 514.906,-1029.86"/>
<polygon fill="none" stroke="black" points="512.377,-1027.44 507.693,-1036.94 517.281,-1032.44 512.377,-1027.44"/>
</g>
<!-- \\Phalcon\\Mvc\\Model -->
<g id="node67" class="node"><title>\\Phalcon\\Mvc\\Model</title>
<ellipse fill="none" stroke="black" cx="143" cy="-1055" rx="105.122" ry="18"/>
<text text-anchor="middle" x="143" y="-1050.9" font-family="Times Roman,serif" font-size="14.00" fill="gray">\Phalcon\Mvc\Model</text>
</g>
<!-- \\Nova\\Models\\ModelBase&#45;&gt;\\Phalcon\\Mvc\\Model -->
<g id="edge43" class="edge"><title>\\Nova\\Models\\ModelBase&#45;&gt;\\Phalcon\\Mvc\\Model</title>
<path fill="none" stroke="black" d="M451.872,-1055C405.737,-1055 325.917,-1055 258.979,-1055"/>
<polygon fill="none" stroke="black" points="258.778,-1051.5 248.778,-1055 258.778,-1058.5 258.778,-1051.5"/>
</g>
<!-- \\Nova\\Models\\Movie -->
<g id="node28" class="node"><title>\\Nova\\Models\\Movie</title>
<polygon fill="none" stroke="black" points="812,-1208 758,-1208 758,-1172 812,-1172 812,-1208"/>
<text text-anchor="middle" x="785" y="-1187.1" font-family="Times Roman,serif" font-size="11.00">Movie</text>
</g>
<!-- \\Nova\\Models\\Movie&#45;&gt;\\Nova\\Models\\ModelBase -->
<g id="edge45" class="edge"><title>\\Nova\\Models\\Movie&#45;&gt;\\Nova\\Models\\ModelBase</title>
<path fill="none" stroke="black" d="M757.84,-1183.45C739.493,-1178.67 714.901,-1171.53 694,-1163 633.985,-1138.49 568.361,-1101.83 528.18,-1078.17"/>
<polygon fill="none" stroke="black" points="529.9,-1075.12 519.513,-1073.03 526.331,-1081.14 529.9,-1075.12"/>
</g>
<!-- \\Nova\\Models\\MovieFactory -->
<g id="node29" class="node"><title>\\Nova\\Models\\MovieFactory</title>
<polygon fill="none" stroke="black" points="829,-938 741,-938 741,-902 829,-902 829,-938"/>
<text text-anchor="middle" x="785" y="-917.1" font-family="Times Roman,serif" font-size="11.00">MovieFactory</text>
</g>
<!-- \\Nova\\Models\\User -->
<g id="node30" class="node"><title>\\Nova\\Models\\User</title>
<polygon fill="none" stroke="black" points="812,-1154 758,-1154 758,-1118 812,-1118 812,-1154"/>
<text text-anchor="middle" x="785" y="-1133.1" font-family="Times Roman,serif" font-size="11.00">User</text>
</g>
<!-- \\Nova\\Models\\User&#45;&gt;\\Nova\\Models\\ModelBase -->
<g id="edge47" class="edge"><title>\\Nova\\Models\\User&#45;&gt;\\Nova\\Models\\ModelBase</title>
<path fill="none" stroke="black" d="M757.776,-1128.52C707.784,-1114.8 600.754,-1085.41 538.204,-1068.24"/>
<polygon fill="none" stroke="black" points="538.758,-1064.76 528.188,-1065.49 536.905,-1071.51 538.758,-1064.76"/>
</g>
<!-- \\Nova\\Plugins\\Cors -->
<g id="node32" class="node"><title>\\Nova\\Plugins\\Cors</title>
<polygon fill="none" stroke="black" points="812,-258 758,-258 758,-222 812,-222 812,-258"/>
<text text-anchor="middle" x="785" y="-237.1" font-family="Times Roman,serif" font-size="11.00">Cors</text>
</g>
<!-- \\Phalcon\\DI\\Injectable -->
<g id="node71" class="node"><title>\\Phalcon\\DI\\Injectable</title>
<ellipse fill="none" stroke="black" cx="490" cy="-72" rx="116.045" ry="18"/>
<text text-anchor="middle" x="490" y="-67.9" font-family="Times Roman,serif" font-size="14.00" fill="gray">\Phalcon\DI\Injectable</text>
</g>
<!-- \\Nova\\Plugins\\Cors&#45;&gt;\\Phalcon\\DI\\Injectable -->
<g id="edge49" class="edge"><title>\\Nova\\Plugins\\Cors&#45;&gt;\\Phalcon\\DI\\Injectable</title>
<path fill="none" stroke="black" d="M757.895,-234.339C739.352,-229.901 714.511,-222.822 694,-213 626.673,-180.759 556.966,-127.511 518.988,-96.5015"/>
<polygon fill="none" stroke="black" points="520.875,-93.5211 510.93,-89.866 516.425,-98.9248 520.875,-93.5211"/>
</g>
<!-- \\Nova\\Plugins\\Security -->
<g id="node33" class="node"><title>\\Nova\\Plugins\\Security</title>
<polygon fill="none" stroke="black" points="815,-204 755,-204 755,-168 815,-168 815,-204"/>
<text text-anchor="middle" x="785" y="-183.1" font-family="Times Roman,serif" font-size="11.00">Security</text>
</g>
<!-- \\Phalcon\\Mvc\\User\\Plugin -->
<g id="node73" class="node"><title>\\Phalcon\\Mvc\\User\\Plugin</title>
<ellipse fill="none" stroke="black" cx="490" cy="-18" rx="132.028" ry="18"/>
<text text-anchor="middle" x="490" y="-13.9" font-family="Times Roman,serif" font-size="14.00" fill="gray">\Phalcon\Mvc\User\Plugin</text>
</g>
<!-- \\Nova\\Plugins\\Security&#45;&gt;\\Phalcon\\Mvc\\User\\Plugin -->
<g id="edge51" class="edge"><title>\\Nova\\Plugins\\Security&#45;&gt;\\Phalcon\\Mvc\\User\\Plugin</title>
<path fill="none" stroke="black" d="M754.245,-184.488C735.323,-182.209 711.443,-176.77 694,-164 644.122,-127.484 672.518,-80.626 622,-45 615.481,-40.4028 608.357,-36.5513 600.904,-33.3284"/>
<polygon fill="none" stroke="black" points="601.897,-29.9584 591.309,-29.5734 599.345,-36.477 601.897,-29.9584"/>
</g>
<!-- \\Nova\\Routes\\DirectoryRoutes -->
<g id="node35" class="node"><title>\\Nova\\Routes\\DirectoryRoutes</title>
<polygon fill="none" stroke="black" points="837,-694 733,-694 733,-658 837,-658 837,-694"/>
<text text-anchor="middle" x="785" y="-673.1" font-family="Times Roman,serif" font-size="11.00">DirectoryRoutes</text>
</g>
<!-- \\Nova\\Routes\\RouterGroupBase -->
<g id="node38" class="node"><title>\\Nova\\Routes\\RouterGroupBase</title>
<polygon fill="none" stroke="black" points="546,-721 434,-721 434,-685 546,-685 546,-721"/>
<text text-anchor="middle" x="490" y="-700.1" font-family="Times Roman,serif" font-size="11.00">RouterGroupBase</text>
</g>
<!-- \\Nova\\Routes\\DirectoryRoutes&#45;&gt;\\Nova\\Routes\\RouterGroupBase -->
<g id="edge53" class="edge"><title>\\Nova\\Routes\\DirectoryRoutes&#45;&gt;\\Nova\\Routes\\RouterGroupBase</title>
<path fill="none" stroke="black" d="M732.939,-680.765C683.835,-685.259 610,-692.017 556.622,-696.902"/>
<polygon fill="none" stroke="black" points="556.207,-693.426 546.568,-697.823 556.845,-700.396 556.207,-693.426"/>
</g>
<!-- \\Nova\\Routes\\DirectoryTypeRoutes -->
<g id="node36" class="node"><title>\\Nova\\Routes\\DirectoryTypeRoutes</title>
<polygon fill="none" stroke="black" points="849,-640 721,-640 721,-604 849,-604 849,-640"/>
<text text-anchor="middle" x="785" y="-619.1" font-family="Times Roman,serif" font-size="11.00">DirectoryTypeRoutes</text>
</g>
<!-- \\Nova\\Routes\\DirectoryTypeRoutes&#45;&gt;\\Nova\\Routes\\RouterGroupBase -->
<g id="edge55" class="edge"><title>\\Nova\\Routes\\DirectoryTypeRoutes&#45;&gt;\\Nova\\Routes\\RouterGroupBase</title>
<path fill="none" stroke="black" d="M720.989,-639.576C672.478,-652.896 606,-671.149 556.814,-684.654"/>
<polygon fill="none" stroke="black" points="555.623,-681.352 546.906,-687.375 557.476,-688.102 555.623,-681.352"/>
</g>
<!-- \\Nova\\Routes\\MovieRoutes -->
<g id="node37" class="node"><title>\\Nova\\Routes\\MovieRoutes</title>
<polygon fill="none" stroke="black" points="828,-802 742,-802 742,-766 828,-766 828,-802"/>
<text text-anchor="middle" x="785" y="-781.1" font-family="Times Roman,serif" font-size="11.00">MovieRoutes</text>
</g>
<!-- \\Nova\\Routes\\MovieRoutes&#45;&gt;\\Nova\\Routes\\RouterGroupBase -->
<g id="edge57" class="edge"><title>\\Nova\\Routes\\MovieRoutes&#45;&gt;\\Nova\\Routes\\RouterGroupBase</title>
<path fill="none" stroke="black" d="M741.789,-772.135C693.1,-758.766 613.372,-736.875 556.683,-721.31"/>
<polygon fill="none" stroke="black" points="557.302,-717.85 546.733,-718.577 555.449,-724.6 557.302,-717.85"/>
</g>
<!-- \\Phalcon\\Mvc\\Router\\Group -->
<g id="node78" class="node"><title>\\Phalcon\\Mvc\\Router\\Group</title>
<ellipse fill="none" stroke="black" cx="143" cy="-703" rx="141.951" ry="18"/>
<text text-anchor="middle" x="143" y="-698.9" font-family="Times Roman,serif" font-size="14.00" fill="gray">\Phalcon\Mvc\Router\Group</text>
</g>
<!-- \\Nova\\Routes\\RouterGroupBase&#45;&gt;\\Phalcon\\Mvc\\Router\\Group -->
<g id="edge59" class="edge"><title>\\Nova\\Routes\\RouterGroupBase&#45;&gt;\\Phalcon\\Mvc\\Router\\Group</title>
<path fill="none" stroke="black" d="M433.476,-703C395.926,-703 344.692,-703 295.703,-703"/>
<polygon fill="none" stroke="black" points="295.615,-699.5 285.615,-703 295.615,-706.5 295.615,-699.5"/>
</g>
<!-- \\Nova\\Routes\\SessionRoutes -->
<g id="node39" class="node"><title>\\Nova\\Routes\\SessionRoutes</title>
<polygon fill="none" stroke="black" points="833,-748 737,-748 737,-712 833,-712 833,-748"/>
<text text-anchor="middle" x="785" y="-727.1" font-family="Times Roman,serif" font-size="11.00">SessionRoutes</text>
</g>
<!-- \\Nova\\Routes\\SessionRoutes&#45;&gt;\\Nova\\Routes\\RouterGroupBase -->
<g id="edge61" class="edge"><title>\\Nova\\Routes\\SessionRoutes&#45;&gt;\\Nova\\Routes\\RouterGroupBase</title>
<path fill="none" stroke="black" d="M736.947,-725.602C687.917,-721.114 611.446,-714.115 556.592,-709.095"/>
<polygon fill="none" stroke="black" points="556.89,-705.608 546.613,-708.182 556.252,-712.578 556.89,-705.608"/>
</g>
<!-- \\Nova\\Scrapers\\FileMovieScraper -->
<g id="node41" class="node"><title>\\Nova\\Scrapers\\FileMovieScraper</title>
<polygon fill="none" stroke="black" points="839,-558 731,-558 731,-522 839,-522 839,-558"/>
<text text-anchor="middle" x="785" y="-537.1" font-family="Times Roman,serif" font-size="11.00">FileMovieScraper</text>
</g>
<!-- \\Nova\\Scrapers\\MovieScraper -->
<g id="node42" class="node"><title>\\Nova\\Scrapers\\MovieScraper</title>
<polygon fill="none" stroke="black" points="536,-531 444,-531 444,-495 536,-495 536,-531"/>
<text text-anchor="start" x="460" y="-518.433" font-family="Times Roman,serif" font-size="11.00">«abstract»</text>
<text text-anchor="start" x="452.5" y="-505.233" font-family="Times Roman,serif" font-size="11.00">MovieScraper</text>
</g>
<!-- \\Nova\\Scrapers\\FileMovieScraper&#45;&gt;\\Nova\\Scrapers\\MovieScraper -->
<g id="edge63" class="edge"><title>\\Nova\\Scrapers\\FileMovieScraper&#45;&gt;\\Nova\\Scrapers\\MovieScraper</title>
<path fill="none" stroke="black" d="M730.892,-535.048C678.497,-530.252 599.391,-523.012 546.274,-518.151"/>
<polygon fill="none" stroke="black" points="546.29,-514.637 536.013,-517.211 545.652,-521.608 546.29,-514.637"/>
</g>
<!-- \\Nova\\Scrapers\\TmdbMovieScraper -->
<g id="node43" class="node"><title>\\Nova\\Scrapers\\TmdbMovieScraper</title>
<polygon fill="none" stroke="black" points="846,-504 724,-504 724,-468 846,-468 846,-504"/>
<text text-anchor="middle" x="785" y="-483.1" font-family="Times Roman,serif" font-size="11.00">TmdbMovieScraper</text>
</g>
<!-- \\Nova\\Scrapers\\TmdbMovieScraper&#45;&gt;\\Nova\\Scrapers\\MovieScraper -->
<g id="edge65" class="edge"><title>\\Nova\\Scrapers\\TmdbMovieScraper&#45;&gt;\\Nova\\Scrapers\\MovieScraper</title>
<path fill="none" stroke="black" d="M723.876,-491.594C671.615,-496.378 597.018,-503.205 546.221,-507.854"/>
<polygon fill="none" stroke="black" points="545.715,-504.386 536.076,-508.783 546.353,-511.357 545.715,-504.386"/>
</g>
<!-- \\Nova\\Security\\SessionAuthenticationProvider -->
<g id="node45" class="node"><title>\\Nova\\Security\\SessionAuthenticationProvider</title>
<polygon fill="none" stroke="black" points="876,-422 694,-422 694,-386 876,-386 876,-422"/>
<text text-anchor="middle" x="785" y="-401.1" font-family="Times Roman,serif" font-size="11.00">SessionAuthenticationProvider</text>
</g>
<!-- \\Nova\\Security\\IAuthenticationProvider -->
<g id="node46" class="node"><title>\\Nova\\Security\\IAuthenticationProvider</title>
<polygon fill="none" stroke="black" points="561,-422 419,-422 419,-386 561,-386 561,-422"/>
<text text-anchor="middle" x="490" y="-401.1" font-family="Times Roman,serif" font-size="11.00">IAuthenticationProvider</text>
</g>
<!-- \\Nova\\Security\\SessionAuthenticationProvider&#45;&gt;\\Nova\\Security\\IAuthenticationProvider -->
<g id="edge69" class="edge"><title>\\Nova\\Security\\SessionAuthenticationProvider&#45;&gt;\\Nova\\Security\\IAuthenticationProvider</title>
<path fill="none" stroke="black" stroke-dasharray="1,5" d="M693.68,-404C654.703,-404 609.571,-404 571.712,-404"/>
<polygon fill="none" stroke="black" points="571.238,-400.5 561.238,-404 571.238,-407.5 571.238,-400.5"/>
</g>
<!-- \\Nova\\Security\\SessionAuthenticationProvider&#45;&gt;\\Phalcon\\DI\\Injectable -->
<g id="edge67" class="edge"><title>\\Nova\\Security\\SessionAuthenticationProvider&#45;&gt;\\Phalcon\\DI\\Injectable</title>
<path fill="none" stroke="black" d="M714.079,-385.877C706.951,-382.542 700.103,-378.616 694,-374 642.416,-334.983 543.115,-165.674 505.212,-99.0635"/>
<polygon fill="none" stroke="black" points="508.055,-96.9815 500.078,-90.0087 501.966,-100.434 508.055,-96.9815"/>
</g>
<!-- \\Nova\\Services\\MovieService -->
<g id="node48" class="node"><title>\\Nova\\Services\\MovieService</title>
<polygon fill="none" stroke="black" points="829,-340 741,-340 741,-304 829,-304 829,-340"/>
<text text-anchor="middle" x="785" y="-319.1" font-family="Times Roman,serif" font-size="11.00">MovieService</text>
</g>
<!-- \\Nova\\Services\\IMovieService -->
<g id="node49" class="node"><title>\\Nova\\Services\\IMovieService</title>
<polygon fill="none" stroke="black" points="535,-340 445,-340 445,-304 535,-304 535,-340"/>
<text text-anchor="middle" x="490" y="-319.1" font-family="Times Roman,serif" font-size="11.00">IMovieService</text>
</g>
<!-- \\Nova\\Services\\MovieService&#45;&gt;\\Nova\\Services\\IMovieService -->
<g id="edge71" class="edge"><title>\\Nova\\Services\\MovieService&#45;&gt;\\Nova\\Services\\IMovieService</title>
<path fill="none" stroke="black" stroke-dasharray="1,5" d="M740.836,-322C688.783,-322 602.227,-322 545.64,-322"/>
<polygon fill="none" stroke="black" points="545.437,-318.5 535.437,-322 545.437,-325.5 545.437,-318.5"/>
</g>
<!-- \\Nova\\Object -->
<g id="node50" class="node"><title>\\Nova\\Object</title>
<polygon fill="none" stroke="black" points="812,-150 758,-150 758,-114 812,-114 812,-150"/>
<text text-anchor="middle" x="785" y="-129.1" font-family="Times Roman,serif" font-size="11.00">Object</text>
</g>
</g>
</svg>
