<?xml version="1.0" encoding="UTF-8" standalone="no"?>
<!DOCTYPE svg PUBLIC "-//W3C//DTD SVG 1.1//EN"
 "http://www.w3.org/Graphics/SVG/1.1/DTD/svg11.dtd">
<!-- Generated by graphviz version 2.26.3 (20100126.1600)
 -->
<!-- Title: G Pages: 1 -->
<svg width="916pt" height="2102pt"
 viewBox="0.00 0.00 916.00 2102.00" xmlns="http://www.w3.org/2000/svg" xmlns:xlink="http://www.w3.org/1999/xlink">
<g id="graph1" class="graph" transform="scale(1 1) rotate(0) translate(4 2098)">
<title>G</title>
<polygon fill="white" stroke="white" points="-4,5 -4,-2098 913,-2098 913,5 -4,5"/>
<g id="graph2" class="cluster"><title>cluster_Global</title>
<polyline fill="none" stroke="gray" points="407,-98 888,-98 "/>
<path fill="none" stroke="gray" d="M888,-98C894,-98 900,-104 900,-110"/>
<polyline fill="none" stroke="gray" points="900,-110 900,-2074 "/>
<path fill="none" stroke="gray" d="M900,-2074C900,-2080 894,-2086 888,-2086"/>
<polyline fill="none" stroke="gray" points="888,-2086 407,-2086 "/>
<path fill="none" stroke="gray" d="M407,-2086C401,-2086 395,-2080 395,-2074"/>
<polyline fill="none" stroke="gray" points="395,-2074 395,-110 "/>
<path fill="none" stroke="gray" d="M395,-110C395,-104 401,-98 407,-98"/>
<text text-anchor="middle" x="647.5" y="-2072.1" font-family="Times Roman,serif" font-size="11.00" fill="gray">Global</text>
</g>
<g id="graph3" class="cluster"><title>cluster_\Nova</title>
<polyline fill="none" stroke="gray" points="415,-106 880,-106 "/>
<path fill="none" stroke="gray" d="M880,-106C886,-106 892,-112 892,-118"/>
<polyline fill="none" stroke="gray" points="892,-118 892,-2044 "/>
<path fill="none" stroke="gray" d="M892,-2044C892,-2050 886,-2056 880,-2056"/>
<polyline fill="none" stroke="gray" points="880,-2056 415,-2056 "/>
<path fill="none" stroke="gray" d="M415,-2056C409,-2056 403,-2050 403,-2044"/>
<polyline fill="none" stroke="gray" points="403,-2044 403,-118 "/>
<path fill="none" stroke="gray" d="M403,-118C403,-112 409,-106 415,-106"/>
<text text-anchor="middle" x="647.5" y="-2042.1" font-family="Times Roman,serif" font-size="11.00" fill="gray">Nova</text>
</g>
<g id="graph4" class="cluster"><title>cluster_\Nova\Apis</title>
<polyline fill="none" stroke="gray" points="460,-1952 835,-1952 "/>
<path fill="none" stroke="gray" d="M835,-1952C841,-1952 847,-1958 847,-1964"/>
<polyline fill="none" stroke="gray" points="847,-1964 847,-2014 "/>
<path fill="none" stroke="gray" d="M847,-2014C847,-2020 841,-2026 835,-2026"/>
<polyline fill="none" stroke="gray" points="835,-2026 460,-2026 "/>
<path fill="none" stroke="gray" d="M460,-2026C454,-2026 448,-2020 448,-2014"/>
<polyline fill="none" stroke="gray" points="448,-2014 448,-1964 "/>
<path fill="none" stroke="gray" d="M448,-1964C448,-1958 454,-1952 460,-1952"/>
<text text-anchor="middle" x="647.5" y="-2012.1" font-family="Times Roman,serif" font-size="11.00" fill="gray">Apis</text>
</g>
<g id="graph5" class="cluster"><title>cluster_\Nova\Models</title>
<polyline fill="none" stroke="gray" points="456,-1546 827,-1546 "/>
<path fill="none" stroke="gray" d="M827,-1546C833,-1546 839,-1552 839,-1558"/>
<polyline fill="none" stroke="gray" points="839,-1558 839,-1932 "/>
<path fill="none" stroke="gray" d="M839,-1932C839,-1938 833,-1944 827,-1944"/>
<polyline fill="none" stroke="gray" points="827,-1944 456,-1944 "/>
<path fill="none" stroke="gray" d="M456,-1944C450,-1944 444,-1938 444,-1932"/>
<polyline fill="none" stroke="gray" points="444,-1932 444,-1558 "/>
<path fill="none" stroke="gray" d="M444,-1558C444,-1552 450,-1546 456,-1546"/>
<text text-anchor="middle" x="641.5" y="-1930.1" font-family="Times Roman,serif" font-size="11.00" fill="gray">Models</text>
</g>
<g id="graph6" class="cluster"><title>cluster_\Nova\Routes</title>
<polyline fill="none" stroke="gray" points="437,-1302 845,-1302 "/>
<path fill="none" stroke="gray" d="M845,-1302C851,-1302 857,-1308 857,-1314"/>
<polyline fill="none" stroke="gray" points="857,-1314 857,-1526 "/>
<path fill="none" stroke="gray" d="M857,-1526C857,-1532 851,-1538 845,-1538"/>
<polyline fill="none" stroke="gray" points="845,-1538 437,-1538 "/>
<path fill="none" stroke="gray" d="M437,-1538C431,-1538 425,-1532 425,-1526"/>
<polyline fill="none" stroke="gray" points="425,-1526 425,-1314 "/>
<path fill="none" stroke="gray" d="M425,-1314C425,-1308 431,-1302 437,-1302"/>
<text text-anchor="middle" x="641" y="-1524.1" font-family="Times Roman,serif" font-size="11.00" fill="gray">Routes</text>
</g>
<g id="graph7" class="cluster"><title>cluster_\Nova\Controllers</title>
<polyline fill="none" stroke="gray" points="446,-896 853,-896 "/>
<path fill="none" stroke="gray" d="M853,-896C859,-896 865,-902 865,-908"/>
<polyline fill="none" stroke="gray" points="865,-908 865,-1282 "/>
<path fill="none" stroke="gray" d="M865,-1282C865,-1288 859,-1294 853,-1294"/>
<polyline fill="none" stroke="gray" points="853,-1294 446,-1294 "/>
<path fill="none" stroke="gray" d="M446,-1294C440,-1294 434,-1288 434,-1282"/>
<polyline fill="none" stroke="gray" points="434,-1282 434,-908 "/>
<path fill="none" stroke="gray" d="M434,-908C434,-902 440,-896 446,-896"/>
<text text-anchor="middle" x="649.5" y="-1280.1" font-family="Times Roman,serif" font-size="11.00" fill="gray">Controllers</text>
</g>
<g id="graph8" class="cluster"><title>cluster_\Nova\Encoders</title>
<polyline fill="none" stroke="gray" points="462,-814 838,-814 "/>
<path fill="none" stroke="gray" d="M838,-814C844,-814 850,-820 850,-826"/>
<polyline fill="none" stroke="gray" points="850,-826 850,-876 "/>
<path fill="none" stroke="gray" d="M850,-876C850,-882 844,-888 838,-888"/>
<polyline fill="none" stroke="gray" points="838,-888 462,-888 "/>
<path fill="none" stroke="gray" d="M462,-888C456,-888 450,-882 450,-876"/>
<polyline fill="none" stroke="gray" points="450,-876 450,-826 "/>
<path fill="none" stroke="gray" d="M450,-826C450,-820 456,-814 462,-814"/>
<text text-anchor="middle" x="650" y="-874.1" font-family="Times Roman,serif" font-size="11.00" fill="gray">Encoders</text>
</g>
<g id="graph9" class="cluster"><title>cluster_\Nova\Services</title>
<polyline fill="none" stroke="gray" points="449,-732 825,-732 "/>
<path fill="none" stroke="gray" d="M825,-732C831,-732 837,-738 837,-744"/>
<polyline fill="none" stroke="gray" points="837,-744 837,-794 "/>
<path fill="none" stroke="gray" d="M837,-794C837,-800 831,-806 825,-806"/>
<polyline fill="none" stroke="gray" points="825,-806 449,-806 "/>
<path fill="none" stroke="gray" d="M449,-806C443,-806 437,-800 437,-794"/>
<polyline fill="none" stroke="gray" points="437,-794 437,-744 "/>
<path fill="none" stroke="gray" d="M437,-744C437,-738 443,-732 449,-732"/>
<text text-anchor="middle" x="637" y="-792.1" font-family="Times Roman,serif" font-size="11.00" fill="gray">Services</text>
</g>
<g id="graph10" class="cluster"><title>cluster_\Nova\IO</title>
<polyline fill="none" stroke="gray" points="466,-596 820,-596 "/>
<path fill="none" stroke="gray" d="M820,-596C826,-596 832,-602 832,-608"/>
<polyline fill="none" stroke="gray" points="832,-608 832,-712 "/>
<path fill="none" stroke="gray" d="M832,-712C832,-718 826,-724 820,-724"/>
<polyline fill="none" stroke="gray" points="820,-724 466,-724 "/>
<path fill="none" stroke="gray" d="M466,-724C460,-724 454,-718 454,-712"/>
<polyline fill="none" stroke="gray" points="454,-712 454,-608 "/>
<path fill="none" stroke="gray" d="M454,-608C454,-602 460,-596 466,-596"/>
<text text-anchor="middle" x="643" y="-710.1" font-family="Times Roman,serif" font-size="11.00" fill="gray">IO</text>
</g>
<g id="graph11" class="cluster"><title>cluster_\Nova\Scrapers</title>
<polyline fill="none" stroke="gray" points="448,-460 842,-460 "/>
<path fill="none" stroke="gray" d="M842,-460C848,-460 854,-466 854,-472"/>
<polyline fill="none" stroke="gray" points="854,-472 854,-576 "/>
<path fill="none" stroke="gray" d="M854,-576C854,-582 848,-588 842,-588"/>
<polyline fill="none" stroke="gray" points="842,-588 448,-588 "/>
<path fill="none" stroke="gray" d="M448,-588C442,-588 436,-582 436,-576"/>
<polyline fill="none" stroke="gray" points="436,-576 436,-472 "/>
<path fill="none" stroke="gray" d="M436,-472C436,-466 442,-460 448,-460"/>
<text text-anchor="middle" x="645" y="-574.1" font-family="Times Roman,serif" font-size="11.00" fill="gray">Scrapers</text>
</g>
<g id="graph12" class="cluster"><title>cluster_\Nova\Security</title>
<polyline fill="none" stroke="gray" points="423,-378 872,-378 "/>
<path fill="none" stroke="gray" d="M872,-378C878,-378 884,-384 884,-390"/>
<polyline fill="none" stroke="gray" points="884,-390 884,-440 "/>
<path fill="none" stroke="gray" d="M884,-440C884,-446 878,-452 872,-452"/>
<polyline fill="none" stroke="gray" points="872,-452 423,-452 "/>
<path fill="none" stroke="gray" d="M423,-452C417,-452 411,-446 411,-440"/>
<polyline fill="none" stroke="gray" points="411,-440 411,-390 "/>
<path fill="none" stroke="gray" d="M411,-390C411,-384 417,-378 423,-378"/>
<text text-anchor="middle" x="647.5" y="-438.1" font-family="Times Roman,serif" font-size="11.00" fill="gray">Security</text>
</g>
<g id="graph13" class="cluster"><title>cluster_\Nova\Plugins</title>
<polyline fill="none" stroke="gray" points="758,-242 812,-242 "/>
<path fill="none" stroke="gray" d="M812,-242C818,-242 824,-248 824,-254"/>
<polyline fill="none" stroke="gray" points="824,-254 824,-358 "/>
<path fill="none" stroke="gray" d="M824,-358C824,-364 818,-370 812,-370"/>
<polyline fill="none" stroke="gray" points="812,-370 758,-370 "/>
<path fill="none" stroke="gray" d="M758,-370C752,-370 746,-364 746,-358"/>
<polyline fill="none" stroke="gray" points="746,-358 746,-254 "/>
<path fill="none" stroke="gray" d="M746,-254C746,-248 752,-242 758,-242"/>
<text text-anchor="middle" x="785" y="-356.1" font-family="Times Roman,serif" font-size="11.00" fill="gray">Plugins</text>
</g>
<g id="graph14" class="cluster"><title>cluster_\Nova\Http</title>
<polyline fill="none" stroke="gray" points="749,-160 821,-160 "/>
<path fill="none" stroke="gray" d="M821,-160C827,-160 833,-166 833,-172"/>
<polyline fill="none" stroke="gray" points="833,-172 833,-222 "/>
<path fill="none" stroke="gray" d="M833,-222C833,-228 827,-234 821,-234"/>
<polyline fill="none" stroke="gray" points="821,-234 749,-234 "/>
<path fill="none" stroke="gray" d="M749,-234C743,-234 737,-228 737,-222"/>
<polyline fill="none" stroke="gray" points="737,-222 737,-172 "/>
<path fill="none" stroke="gray" d="M737,-172C737,-166 743,-160 749,-160"/>
<text text-anchor="middle" x="785" y="-220.1" font-family="Times Roman,serif" font-size="11.00" fill="gray">Http</text>
</g>
<!-- \\Nova\\Apis\\TmdbApiAdapter -->
<g id="node4" class="node"><title>\\Nova\\Apis\\TmdbApiAdapter</title>
<polygon fill="none" stroke="black" points="839,-1996 731,-1996 731,-1960 839,-1960 839,-1996"/>
<text text-anchor="middle" x="785" y="-1975.1" font-family="Times Roman,serif" font-size="11.00">TmdbApiAdapter</text>
</g>
<!-- \\Nova\\Apis\\ITmdbApi -->
<g id="node5" class="node"><title>\\Nova\\Apis\\ITmdbApi</title>
<polygon fill="none" stroke="black" points="523,-1996 457,-1996 457,-1960 523,-1960 523,-1996"/>
<text text-anchor="middle" x="490" y="-1975.1" font-family="Times Roman,serif" font-size="11.00">ITmdbApi</text>
</g>
<!-- \\Nova\\Apis\\TmdbApiAdapter&#45;&gt;\\Nova\\Apis\\ITmdbApi -->
<g id="edge15" class="edge"><title>\\Nova\\Apis\\TmdbApiAdapter&#45;&gt;\\Nova\\Apis\\ITmdbApi</title>
<path fill="none" stroke="black" stroke-dasharray="1,5" d="M730.892,-1978C674.249,-1978 586.388,-1978 533.895,-1978"/>
<polygon fill="none" stroke="black" points="533.571,-1974.5 523.571,-1978 533.571,-1981.5 533.571,-1974.5"/>
</g>
<!-- \\Nova\\Models\\AuthToken -->
<g id="node7" class="node"><title>\\Nova\\Models\\AuthToken</title>
<polygon fill="none" stroke="black" points="821,-1914 749,-1914 749,-1878 821,-1878 821,-1914"/>
<text text-anchor="middle" x="785" y="-1893.1" font-family="Times Roman,serif" font-size="11.00">AuthToken</text>
</g>
<!-- \\Nova\\Models\\ModelBase -->
<g id="node9" class="node"><title>\\Nova\\Models\\ModelBase</title>
<polygon fill="none" stroke="black" points="528,-1725 452,-1725 452,-1689 528,-1689 528,-1725"/>
<text text-anchor="middle" x="490" y="-1704.1" font-family="Times Roman,serif" font-size="11.00">ModelBase</text>
</g>
<!-- \\Nova\\Models\\AuthToken&#45;&gt;\\Nova\\Models\\ModelBase -->
<g id="edge17" class="edge"><title>\\Nova\\Models\\AuthToken&#45;&gt;\\Nova\\Models\\ModelBase</title>
<path fill="none" stroke="black" d="M748.777,-1888.64C731.582,-1884.3 711.104,-1877.9 694,-1869 622.273,-1831.68 551.235,-1767.47 514.906,-1732.14"/>
<polygon fill="none" stroke="black" points="517.281,-1729.56 507.693,-1725.06 512.377,-1734.56 517.281,-1729.56"/>
</g>
<!-- \\Nova\\Models\\MovieFactory -->
<g id="node8" class="node"><title>\\Nova\\Models\\MovieFactory</title>
<polygon fill="none" stroke="black" points="829,-1860 741,-1860 741,-1824 829,-1824 829,-1860"/>
<text text-anchor="middle" x="785" y="-1839.1" font-family="Times Roman,serif" font-size="11.00">MovieFactory</text>
</g>
<!-- \\Phalcon\\Mvc\\Model -->
<g id="node64" class="node"><title>\\Phalcon\\Mvc\\Model</title>
<ellipse fill="none" stroke="black" cx="143" cy="-1707" rx="105.122" ry="18"/>
<text text-anchor="middle" x="143" y="-1702.9" font-family="Times Roman,serif" font-size="14.00" fill="gray">\Phalcon\Mvc\Model</text>
</g>
<!-- \\Nova\\Models\\ModelBase&#45;&gt;\\Phalcon\\Mvc\\Model -->
<g id="edge31" class="edge"><title>\\Nova\\Models\\ModelBase&#45;&gt;\\Phalcon\\Mvc\\Model</title>
<path fill="none" stroke="black" d="M451.872,-1707C405.737,-1707 325.917,-1707 258.979,-1707"/>
<polygon fill="none" stroke="black" points="258.778,-1703.5 248.778,-1707 258.778,-1710.5 258.778,-1703.5"/>
</g>
<!-- \\Nova\\Models\\User -->
<g id="node10" class="node"><title>\\Nova\\Models\\User</title>
<polygon fill="none" stroke="black" points="812,-1806 758,-1806 758,-1770 812,-1770 812,-1806"/>
<text text-anchor="middle" x="785" y="-1785.1" font-family="Times Roman,serif" font-size="11.00">User</text>
</g>
<!-- \\Nova\\Models\\User&#45;&gt;\\Nova\\Models\\ModelBase -->
<g id="edge35" class="edge"><title>\\Nova\\Models\\User&#45;&gt;\\Nova\\Models\\ModelBase</title>
<path fill="none" stroke="black" d="M757.776,-1780.52C707.784,-1766.8 600.754,-1737.41 538.204,-1720.24"/>
<polygon fill="none" stroke="black" points="538.758,-1716.76 528.188,-1717.49 536.905,-1723.51 538.758,-1716.76"/>
</g>
<!-- \\Nova\\Models\\Directory -->
<g id="node11" class="node"><title>\\Nova\\Models\\Directory</title>
<polygon fill="none" stroke="black" points="818,-1752 752,-1752 752,-1716 818,-1716 818,-1752"/>
<text text-anchor="middle" x="785" y="-1731.1" font-family="Times Roman,serif" font-size="11.00">Directory</text>
</g>
<!-- \\Nova\\Models\\Directory&#45;&gt;\\Nova\\Models\\ModelBase -->
<g id="edge43" class="edge"><title>\\Nova\\Models\\Directory&#45;&gt;\\Nova\\Models\\ModelBase</title>
<path fill="none" stroke="black" d="M751.733,-1730.96C699.599,-1726.18 598.407,-1716.92 538.265,-1711.42"/>
<polygon fill="none" stroke="black" points="538.534,-1707.93 528.257,-1710.5 537.896,-1714.9 538.534,-1707.93"/>
</g>
<!-- \\Nova\\Models\\Actor -->
<g id="node12" class="node"><title>\\Nova\\Models\\Actor</title>
<polygon fill="none" stroke="black" points="812,-1698 758,-1698 758,-1662 812,-1662 812,-1698"/>
<text text-anchor="middle" x="785" y="-1677.1" font-family="Times Roman,serif" font-size="11.00">Actor</text>
</g>
<!-- \\Nova\\Models\\Actor&#45;&gt;\\Nova\\Models\\ModelBase -->
<g id="edge55" class="edge"><title>\\Nova\\Models\\Actor&#45;&gt;\\Nova\\Models\\ModelBase</title>
<path fill="none" stroke="black" d="M757.776,-1682.49C707.784,-1687.07 600.754,-1696.86 538.204,-1702.59"/>
<polygon fill="none" stroke="black" points="537.828,-1699.11 528.188,-1703.5 538.466,-1706.08 537.828,-1699.11"/>
</g>
<!-- \\Nova\\Models\\DirectoryType -->
<g id="node13" class="node"><title>\\Nova\\Models\\DirectoryType</title>
<polygon fill="none" stroke="black" points="830,-1644 740,-1644 740,-1608 830,-1608 830,-1644"/>
<text text-anchor="middle" x="785" y="-1623.1" font-family="Times Roman,serif" font-size="11.00">DirectoryType</text>
</g>
<!-- \\Nova\\Models\\DirectoryType&#45;&gt;\\Nova\\Models\\ModelBase -->
<g id="edge63" class="edge"><title>\\Nova\\Models\\DirectoryType&#45;&gt;\\Nova\\Models\\ModelBase</title>
<path fill="none" stroke="black" d="M739.23,-1638.57C684.687,-1653.54 593.961,-1678.45 538.319,-1693.73"/>
<polygon fill="none" stroke="black" points="537.071,-1690.45 528.355,-1696.47 538.924,-1697.2 537.071,-1690.45"/>
</g>
<!-- \\Nova\\Models\\Movie -->
<g id="node14" class="node"><title>\\Nova\\Models\\Movie</title>
<polygon fill="none" stroke="black" points="812,-1590 758,-1590 758,-1554 812,-1554 812,-1590"/>
<text text-anchor="middle" x="785" y="-1569.1" font-family="Times Roman,serif" font-size="11.00">Movie</text>
</g>
<!-- \\Nova\\Models\\Movie&#45;&gt;\\Nova\\Models\\ModelBase -->
<g id="edge67" class="edge"><title>\\Nova\\Models\\Movie&#45;&gt;\\Nova\\Models\\ModelBase</title>
<path fill="none" stroke="black" d="M757.84,-1578.55C739.493,-1583.33 714.901,-1590.47 694,-1599 633.985,-1623.51 568.361,-1660.17 528.18,-1683.83"/>
<polygon fill="none" stroke="black" points="526.331,-1680.86 519.513,-1688.97 529.9,-1686.88 526.331,-1680.86"/>
</g>
<!-- \\Nova\\Routes\\RouterGroupBase -->
<g id="node16" class="node"><title>\\Nova\\Routes\\RouterGroupBase</title>
<polygon fill="none" stroke="black" points="546,-1427 434,-1427 434,-1391 546,-1391 546,-1427"/>
<text text-anchor="middle" x="490" y="-1406.1" font-family="Times Roman,serif" font-size="11.00">RouterGroupBase</text>
</g>
<!-- \\Phalcon\\Mvc\\Router\\Group -->
<g id="node56" class="node"><title>\\Phalcon\\Mvc\\Router\\Group</title>
<ellipse fill="none" stroke="black" cx="143" cy="-1409" rx="141.951" ry="18"/>
<text text-anchor="middle" x="143" y="-1404.9" font-family="Times Roman,serif" font-size="14.00" fill="gray">\Phalcon\Mvc\Router\Group</text>
</g>
<!-- \\Nova\\Routes\\RouterGroupBase&#45;&gt;\\Phalcon\\Mvc\\Router\\Group -->
<g id="edge19" class="edge"><title>\\Nova\\Routes\\RouterGroupBase&#45;&gt;\\Phalcon\\Mvc\\Router\\Group</title>
<path fill="none" stroke="black" d="M433.476,-1409C395.926,-1409 344.692,-1409 295.703,-1409"/>
<polygon fill="none" stroke="black" points="295.615,-1405.5 285.615,-1409 295.615,-1412.5 295.615,-1405.5"/>
</g>
<!-- \\Nova\\Routes\\SessionRoutes -->
<g id="node17" class="node"><title>\\Nova\\Routes\\SessionRoutes</title>
<polygon fill="none" stroke="black" points="833,-1508 737,-1508 737,-1472 833,-1472 833,-1508"/>
<text text-anchor="middle" x="785" y="-1487.1" font-family="Times Roman,serif" font-size="11.00">SessionRoutes</text>
</g>
<!-- \\Nova\\Routes\\SessionRoutes&#45;&gt;\\Nova\\Routes\\RouterGroupBase -->
<g id="edge27" class="edge"><title>\\Nova\\Routes\\SessionRoutes&#45;&gt;\\Nova\\Routes\\RouterGroupBase</title>
<path fill="none" stroke="black" d="M736.947,-1476.81C687.917,-1463.34 611.446,-1442.35 556.592,-1427.28"/>
<polygon fill="none" stroke="black" points="557.183,-1423.82 546.613,-1424.54 555.329,-1430.57 557.183,-1423.82"/>
</g>
<!-- \\Nova\\Routes\\DirectoryRoutes -->
<g id="node18" class="node"><title>\\Nova\\Routes\\DirectoryRoutes</title>
<polygon fill="none" stroke="black" points="837,-1454 733,-1454 733,-1418 837,-1418 837,-1454"/>
<text text-anchor="middle" x="785" y="-1433.1" font-family="Times Roman,serif" font-size="11.00">DirectoryRoutes</text>
</g>
<!-- \\Nova\\Routes\\DirectoryRoutes&#45;&gt;\\Nova\\Routes\\RouterGroupBase -->
<g id="edge41" class="edge"><title>\\Nova\\Routes\\DirectoryRoutes&#45;&gt;\\Nova\\Routes\\RouterGroupBase</title>
<path fill="none" stroke="black" d="M732.939,-1431.24C683.835,-1426.74 610,-1419.98 556.622,-1415.1"/>
<polygon fill="none" stroke="black" points="556.845,-1411.6 546.568,-1414.18 556.207,-1418.57 556.845,-1411.6"/>
</g>
<!-- \\Nova\\Routes\\DirectoryTypeRoutes -->
<g id="node19" class="node"><title>\\Nova\\Routes\\DirectoryTypeRoutes</title>
<polygon fill="none" stroke="black" points="849,-1400 721,-1400 721,-1364 849,-1364 849,-1400"/>
<text text-anchor="middle" x="785" y="-1379.1" font-family="Times Roman,serif" font-size="11.00">DirectoryTypeRoutes</text>
</g>
<!-- \\Nova\\Routes\\DirectoryTypeRoutes&#45;&gt;\\Nova\\Routes\\RouterGroupBase -->
<g id="edge47" class="edge"><title>\\Nova\\Routes\\DirectoryTypeRoutes&#45;&gt;\\Nova\\Routes\\RouterGroupBase</title>
<path fill="none" stroke="black" d="M720.989,-1387.86C672.579,-1392.29 606.278,-1398.36 557.123,-1402.86"/>
<polygon fill="none" stroke="black" points="556.546,-1399.39 546.906,-1403.79 557.184,-1406.37 556.546,-1399.39"/>
</g>
<!-- \\Nova\\Routes\\MovieRoutes -->
<g id="node20" class="node"><title>\\Nova\\Routes\\MovieRoutes</title>
<polygon fill="none" stroke="black" points="828,-1346 742,-1346 742,-1310 828,-1310 828,-1346"/>
<text text-anchor="middle" x="785" y="-1325.1" font-family="Times Roman,serif" font-size="11.00">MovieRoutes</text>
</g>
<!-- \\Nova\\Routes\\MovieRoutes&#45;&gt;\\Nova\\Routes\\RouterGroupBase -->
<g id="edge65" class="edge"><title>\\Nova\\Routes\\MovieRoutes&#45;&gt;\\Nova\\Routes\\RouterGroupBase</title>
<path fill="none" stroke="black" d="M741.789,-1339.86C693.1,-1353.23 613.372,-1375.13 556.683,-1390.69"/>
<polygon fill="none" stroke="black" points="555.449,-1387.4 546.733,-1393.42 557.302,-1394.15 555.449,-1387.4"/>
</g>
<!-- \\Nova\\Controllers\\IndexController -->
<g id="node22" class="node"><title>\\Nova\\Controllers\\IndexController</title>
<polygon fill="none" stroke="black" points="834,-1264 736,-1264 736,-1228 834,-1228 834,-1264"/>
<text text-anchor="middle" x="785" y="-1243.1" font-family="Times Roman,serif" font-size="11.00">IndexController</text>
</g>
<!-- \\Nova\\Controllers\\ControllerBase -->
<g id="node23" class="node"><title>\\Nova\\Controllers\\ControllerBase</title>
<polygon fill="none" stroke="black" points="538,-1102 442,-1102 442,-1066 538,-1066 538,-1102"/>
<text text-anchor="middle" x="490" y="-1081.1" font-family="Times Roman,serif" font-size="11.00">ControllerBase</text>
</g>
<!-- \\Nova\\Controllers\\IndexController&#45;&gt;\\Nova\\Controllers\\ControllerBase -->
<g id="edge21" class="edge"><title>\\Nova\\Controllers\\IndexController&#45;&gt;\\Nova\\Controllers\\ControllerBase</title>
<path fill="none" stroke="black" d="M735.373,-1234.16C721.664,-1230.12 706.993,-1225.06 694,-1219 628.163,-1188.29 559.225,-1138.34 520.726,-1108.58"/>
<polygon fill="none" stroke="black" points="522.567,-1105.58 512.528,-1102.19 518.264,-1111.1 522.567,-1105.58"/>
</g>
<!-- \\Phalcon\\Mvc\\Controller -->
<g id="node59" class="node"><title>\\Phalcon\\Mvc\\Controller</title>
<ellipse fill="none" stroke="black" cx="143" cy="-1084" rx="125.079" ry="18"/>
<text text-anchor="middle" x="143" y="-1079.9" font-family="Times Roman,serif" font-size="14.00" fill="gray">\Phalcon\Mvc\Controller</text>
</g>
<!-- \\Nova\\Controllers\\ControllerBase&#45;&gt;\\Phalcon\\Mvc\\Controller -->
<g id="edge23" class="edge"><title>\\Nova\\Controllers\\ControllerBase&#45;&gt;\\Phalcon\\Mvc\\Controller</title>
<path fill="none" stroke="black" d="M441.751,-1084C399.501,-1084 336.033,-1084 278.448,-1084"/>
<polygon fill="none" stroke="black" points="278.145,-1080.5 268.145,-1084 278.145,-1087.5 278.145,-1080.5"/>
</g>
<!-- \\Nova\\Controllers\\ImageController -->
<g id="node24" class="node"><title>\\Nova\\Controllers\\ImageController</title>
<polygon fill="none" stroke="black" points="836,-1210 734,-1210 734,-1174 836,-1174 836,-1210"/>
<text text-anchor="middle" x="785" y="-1189.1" font-family="Times Roman,serif" font-size="11.00">ImageController</text>
</g>
<!-- \\Nova\\Controllers\\ImageController&#45;&gt;\\Nova\\Controllers\\ControllerBase -->
<g id="edge25" class="edge"><title>\\Nova\\Controllers\\ImageController&#45;&gt;\\Nova\\Controllers\\ControllerBase</title>
<path fill="none" stroke="black" d="M733.249,-1177.52C720.356,-1173.67 706.614,-1169.37 694,-1165 641.382,-1146.79 582.37,-1122.98 541.406,-1105.89"/>
<polygon fill="none" stroke="black" points="542.749,-1102.66 532.173,-1102.03 540.046,-1109.12 542.749,-1102.66"/>
</g>
<!-- \\Nova\\Controllers\\DirectoryTypeController -->
<g id="node25" class="node"><title>\\Nova\\Controllers\\DirectoryTypeController</title>
<polygon fill="none" stroke="black" points="856,-1156 714,-1156 714,-1120 856,-1120 856,-1156"/>
<text text-anchor="middle" x="785" y="-1135.1" font-family="Times Roman,serif" font-size="11.00">DirectoryTypeController</text>
</g>
<!-- \\Nova\\Controllers\\DirectoryTypeController&#45;&gt;\\Nova\\Controllers\\ControllerBase -->
<g id="edge37" class="edge"><title>\\Nova\\Controllers\\DirectoryTypeController&#45;&gt;\\Nova\\Controllers\\ControllerBase</title>
<path fill="none" stroke="black" d="M713.212,-1124.86C662.526,-1115.58 595.476,-1103.31 548.136,-1094.64"/>
<polygon fill="none" stroke="black" points="548.514,-1091.15 538.048,-1092.8 547.254,-1098.04 548.514,-1091.15"/>
</g>
<!-- \\Nova\\Controllers\\DirectoryController -->
<g id="node26" class="node"><title>\\Nova\\Controllers\\DirectoryController</title>
<polygon fill="none" stroke="black" points="844,-1102 726,-1102 726,-1066 844,-1066 844,-1102"/>
<text text-anchor="middle" x="785" y="-1081.1" font-family="Times Roman,serif" font-size="11.00">DirectoryController</text>
</g>
<!-- \\Nova\\Controllers\\DirectoryController&#45;&gt;\\Nova\\Controllers\\ControllerBase -->
<g id="edge39" class="edge"><title>\\Nova\\Controllers\\DirectoryController&#45;&gt;\\Nova\\Controllers\\ControllerBase</title>
<path fill="none" stroke="black" d="M725.302,-1084C673.797,-1084 599.835,-1084 548.64,-1084"/>
<polygon fill="none" stroke="black" points="548.398,-1080.5 538.398,-1084 548.398,-1087.5 548.398,-1080.5"/>
</g>
<!-- \\Nova\\Controllers\\SessionController -->
<g id="node27" class="node"><title>\\Nova\\Controllers\\SessionController</title>
<polygon fill="none" stroke="black" points="840,-1048 730,-1048 730,-1012 840,-1012 840,-1048"/>
<text text-anchor="middle" x="785" y="-1027.1" font-family="Times Roman,serif" font-size="11.00">SessionController</text>
</g>
<!-- \\Nova\\Controllers\\SessionController&#45;&gt;\\Nova\\Controllers\\ControllerBase -->
<g id="edge51" class="edge"><title>\\Nova\\Controllers\\SessionController&#45;&gt;\\Nova\\Controllers\\ControllerBase</title>
<path fill="none" stroke="black" d="M729.166,-1040.22C677.488,-1049.68 600.94,-1063.69 548.445,-1073.3"/>
<polygon fill="none" stroke="black" points="547.487,-1069.92 538.281,-1075.16 548.748,-1076.8 547.487,-1069.92"/>
</g>
<!-- \\Nova\\Controllers\\ErrorController -->
<g id="node28" class="node"><title>\\Nova\\Controllers\\ErrorController</title>
<polygon fill="none" stroke="black" points="833,-994 737,-994 737,-958 833,-958 833,-994"/>
<text text-anchor="middle" x="785" y="-973.1" font-family="Times Roman,serif" font-size="11.00">ErrorController</text>
</g>
<!-- \\Nova\\Controllers\\ErrorController&#45;&gt;\\Nova\\Controllers\\ControllerBase -->
<g id="edge53" class="edge"><title>\\Nova\\Controllers\\ErrorController&#45;&gt;\\Nova\\Controllers\\ControllerBase</title>
<path fill="none" stroke="black" d="M736.572,-989.494C722.74,-993.584 707.704,-998.257 694,-1003 641.382,-1021.21 582.37,-1045.02 541.406,-1062.11"/>
<polygon fill="none" stroke="black" points="540.046,-1058.88 532.173,-1065.97 542.749,-1065.34 540.046,-1058.88"/>
</g>
<!-- \\Nova\\Controllers\\MovieController -->
<g id="node29" class="node"><title>\\Nova\\Controllers\\MovieController</title>
<polygon fill="none" stroke="black" points="835,-940 735,-940 735,-904 835,-904 835,-940"/>
<text text-anchor="middle" x="785" y="-919.1" font-family="Times Roman,serif" font-size="11.00">MovieController</text>
</g>
<!-- \\Nova\\Controllers\\MovieController&#45;&gt;\\Nova\\Controllers\\ControllerBase -->
<g id="edge59" class="edge"><title>\\Nova\\Controllers\\MovieController&#45;&gt;\\Nova\\Controllers\\ControllerBase</title>
<path fill="none" stroke="black" d="M734.426,-934.12C720.991,-938.112 706.694,-943.078 694,-949 628.163,-979.715 559.225,-1029.66 520.726,-1059.42"/>
<polygon fill="none" stroke="black" points="518.264,-1056.9 512.528,-1065.81 522.567,-1062.42 518.264,-1056.9"/>
</g>
<!-- \\Nova\\Encoders\\XmlMovieEncoder -->
<g id="node31" class="node"><title>\\Nova\\Encoders\\XmlMovieEncoder</title>
<polygon fill="none" stroke="black" points="841,-858 729,-858 729,-822 841,-822 841,-858"/>
<text text-anchor="middle" x="785" y="-837.1" font-family="Times Roman,serif" font-size="11.00">XmlMovieEncoder</text>
</g>
<!-- \\Nova\\Encoders\\IEncoder -->
<g id="node32" class="node"><title>\\Nova\\Encoders\\IEncoder</title>
<polygon fill="none" stroke="black" points="521,-858 459,-858 459,-822 521,-822 521,-858"/>
<text text-anchor="middle" x="490" y="-837.1" font-family="Times Roman,serif" font-size="11.00">IEncoder</text>
</g>
<!-- \\Nova\\Encoders\\XmlMovieEncoder&#45;&gt;\\Nova\\Encoders\\IEncoder -->
<g id="edge29" class="edge"><title>\\Nova\\Encoders\\XmlMovieEncoder&#45;&gt;\\Nova\\Encoders\\IEncoder</title>
<path fill="none" stroke="black" stroke-dasharray="1,5" d="M728.47,-840C671.028,-840 583.387,-840 531.881,-840"/>
<polygon fill="none" stroke="black" points="531.772,-836.5 521.772,-840 531.772,-843.5 531.772,-836.5"/>
</g>
<!-- \\Nova\\Services\\MovieService -->
<g id="node34" class="node"><title>\\Nova\\Services\\MovieService</title>
<polygon fill="none" stroke="black" points="829,-776 741,-776 741,-740 829,-740 829,-776"/>
<text text-anchor="middle" x="785" y="-755.1" font-family="Times Roman,serif" font-size="11.00">MovieService</text>
</g>
<!-- \\Nova\\Services\\IMovieService -->
<g id="node35" class="node"><title>\\Nova\\Services\\IMovieService</title>
<polygon fill="none" stroke="black" points="535,-776 445,-776 445,-740 535,-740 535,-776"/>
<text text-anchor="middle" x="490" y="-755.1" font-family="Times Roman,serif" font-size="11.00">IMovieService</text>
</g>
<!-- \\Nova\\Services\\MovieService&#45;&gt;\\Nova\\Services\\IMovieService -->
<g id="edge33" class="edge"><title>\\Nova\\Services\\MovieService&#45;&gt;\\Nova\\Services\\IMovieService</title>
<path fill="none" stroke="black" stroke-dasharray="1,5" d="M740.836,-758C688.783,-758 602.227,-758 545.64,-758"/>
<polygon fill="none" stroke="black" points="545.437,-754.5 535.437,-758 545.437,-761.5 545.437,-754.5"/>
</g>
<!-- \\Nova\\IO\\FileStorage -->
<g id="node37" class="node"><title>\\Nova\\IO\\FileStorage</title>
<polygon fill="none" stroke="black" points="823,-694 747,-694 747,-658 823,-658 823,-694"/>
<text text-anchor="middle" x="785" y="-673.1" font-family="Times Roman,serif" font-size="11.00">FileStorage</text>
</g>
<!-- \\Nova\\IO\\FileInfo -->
<g id="node38" class="node"><title>\\Nova\\IO\\FileInfo</title>
<polygon fill="none" stroke="black" points="812,-640 758,-640 758,-604 812,-604 812,-640"/>
<text text-anchor="middle" x="785" y="-619.1" font-family="Times Roman,serif" font-size="11.00">FileInfo</text>
</g>
<!-- \\Nova\\IO\\IFileInfo -->
<g id="node39" class="node"><title>\\Nova\\IO\\IFileInfo</title>
<polygon fill="none" stroke="black" points="518,-640 462,-640 462,-604 518,-604 518,-640"/>
<text text-anchor="middle" x="490" y="-619.1" font-family="Times Roman,serif" font-size="11.00">IFileInfo</text>
</g>
<!-- \\Nova\\IO\\FileInfo&#45;&gt;\\Nova\\IO\\IFileInfo -->
<g id="edge73" class="edge"><title>\\Nova\\IO\\FileInfo&#45;&gt;\\Nova\\IO\\IFileInfo</title>
<path fill="none" stroke="black" stroke-dasharray="1,5" d="M757.776,-622C705.029,-622 588.789,-622 528.288,-622"/>
<polygon fill="none" stroke="black" points="528.019,-618.5 518.019,-622 528.019,-625.5 528.019,-618.5"/>
</g>
<!-- \\Nova\\Scrapers\\FileMovieScraper -->
<g id="node41" class="node"><title>\\Nova\\Scrapers\\FileMovieScraper</title>
<polygon fill="none" stroke="black" points="839,-558 731,-558 731,-522 839,-522 839,-558"/>
<text text-anchor="middle" x="785" y="-537.1" font-family="Times Roman,serif" font-size="11.00">FileMovieScraper</text>
</g>
<!-- \\Nova\\Scrapers\\MovieScraper -->
<g id="node43" class="node"><title>\\Nova\\Scrapers\\MovieScraper</title>
<polygon fill="none" stroke="black" points="536,-531 444,-531 444,-495 536,-495 536,-531"/>
<text text-anchor="start" x="460" y="-518.433" font-family="Times Roman,serif" font-size="11.00">«abstract»</text>
<text text-anchor="start" x="452.5" y="-505.233" font-family="Times Roman,serif" font-size="11.00">MovieScraper</text>
</g>
<!-- \\Nova\\Scrapers\\FileMovieScraper&#45;&gt;\\Nova\\Scrapers\\MovieScraper -->
<g id="edge45" class="edge"><title>\\Nova\\Scrapers\\FileMovieScraper&#45;&gt;\\Nova\\Scrapers\\MovieScraper</title>
<path fill="none" stroke="black" d="M730.892,-535.048C678.497,-530.252 599.391,-523.012 546.274,-518.151"/>
<polygon fill="none" stroke="black" points="546.29,-514.637 536.013,-517.211 545.652,-521.608 546.29,-514.637"/>
</g>
<!-- \\Nova\\Scrapers\\TmdbMovieScraper -->
<g id="node42" class="node"><title>\\Nova\\Scrapers\\TmdbMovieScraper</title>
<polygon fill="none" stroke="black" points="846,-504 724,-504 724,-468 846,-468 846,-504"/>
<text text-anchor="middle" x="785" y="-483.1" font-family="Times Roman,serif" font-size="11.00">TmdbMovieScraper</text>
</g>
<!-- \\Nova\\Scrapers\\TmdbMovieScraper&#45;&gt;\\Nova\\Scrapers\\MovieScraper -->
<g id="edge49" class="edge"><title>\\Nova\\Scrapers\\TmdbMovieScraper&#45;&gt;\\Nova\\Scrapers\\MovieScraper</title>
<path fill="none" stroke="black" d="M723.876,-491.594C671.615,-496.378 597.018,-503.205 546.221,-507.854"/>
<polygon fill="none" stroke="black" points="545.715,-504.386 536.076,-508.783 546.353,-511.357 545.715,-504.386"/>
</g>
<!-- \\Nova\\Security\\SessionAuthenticationProvider -->
<g id="node45" class="node"><title>\\Nova\\Security\\SessionAuthenticationProvider</title>
<polygon fill="none" stroke="black" points="876,-422 694,-422 694,-386 876,-386 876,-422"/>
<text text-anchor="middle" x="785" y="-401.1" font-family="Times Roman,serif" font-size="11.00">SessionAuthenticationProvider</text>
</g>
<!-- \\Nova\\Security\\IAuthenticationProvider -->
<g id="node46" class="node"><title>\\Nova\\Security\\IAuthenticationProvider</title>
<polygon fill="none" stroke="black" points="561,-422 419,-422 419,-386 561,-386 561,-422"/>
<text text-anchor="middle" x="490" y="-401.1" font-family="Times Roman,serif" font-size="11.00">IAuthenticationProvider</text>
</g>
<!-- \\Nova\\Security\\SessionAuthenticationProvider&#45;&gt;\\Nova\\Security\\IAuthenticationProvider -->
<g id="edge71" class="edge"><title>\\Nova\\Security\\SessionAuthenticationProvider&#45;&gt;\\Nova\\Security\\IAuthenticationProvider</title>
<path fill="none" stroke="black" stroke-dasharray="1,5" d="M693.68,-404C654.703,-404 609.571,-404 571.712,-404"/>
<polygon fill="none" stroke="black" points="571.238,-400.5 561.238,-404 571.238,-407.5 571.238,-400.5"/>
</g>
<!-- \\Phalcon\\DI\\Injectable -->
<g id="node78" class="node"><title>\\Phalcon\\DI\\Injectable</title>
<ellipse fill="none" stroke="black" cx="490" cy="-72" rx="116.045" ry="18"/>
<text text-anchor="middle" x="490" y="-67.9" font-family="Times Roman,serif" font-size="14.00" fill="gray">\Phalcon\DI\Injectable</text>
</g>
<!-- \\Nova\\Security\\SessionAuthenticationProvider&#45;&gt;\\Phalcon\\DI\\Injectable -->
<g id="edge69" class="edge"><title>\\Nova\\Security\\SessionAuthenticationProvider&#45;&gt;\\Phalcon\\DI\\Injectable</title>
<path fill="none" stroke="black" d="M714.079,-385.877C706.951,-382.542 700.103,-378.616 694,-374 593.825,-298.228 526.341,-158.371 501.086,-99.3821"/>
<polygon fill="none" stroke="black" points="504.235,-97.8422 497.128,-89.9843 497.784,-100.559 504.235,-97.8422"/>
</g>
<!-- \\Nova\\Plugins\\Cors -->
<g id="node48" class="node"><title>\\Nova\\Plugins\\Cors</title>
<polygon fill="none" stroke="black" points="812,-340 758,-340 758,-304 812,-304 812,-340"/>
<text text-anchor="middle" x="785" y="-319.1" font-family="Times Roman,serif" font-size="11.00">Cors</text>
</g>
<!-- \\Nova\\Plugins\\Cors&#45;&gt;\\Phalcon\\DI\\Injectable -->
<g id="edge57" class="edge"><title>\\Nova\\Plugins\\Cors&#45;&gt;\\Phalcon\\DI\\Injectable</title>
<path fill="none" stroke="black" d="M757.926,-317.931C738.94,-314.166 713.558,-307.238 694,-295 609.59,-242.18 538.225,-145.129 506.948,-98.4485"/>
<polygon fill="none" stroke="black" points="509.845,-96.4838 501.408,-90.0758 504.008,-100.347 509.845,-96.4838"/>
</g>
<!-- \\Nova\\Plugins\\Security -->
<g id="node49" class="node"><title>\\Nova\\Plugins\\Security</title>
<polygon fill="none" stroke="black" points="815,-286 755,-286 755,-250 815,-250 815,-286"/>
<text text-anchor="middle" x="785" y="-265.1" font-family="Times Roman,serif" font-size="11.00">Security</text>
</g>
<!-- \\Phalcon\\Mvc\\User\\Plugin -->
<g id="node81" class="node"><title>\\Phalcon\\Mvc\\User\\Plugin</title>
<ellipse fill="none" stroke="black" cx="490" cy="-18" rx="132.028" ry="18"/>
<text text-anchor="middle" x="490" y="-13.9" font-family="Times Roman,serif" font-size="14.00" fill="gray">\Phalcon\Mvc\User\Plugin</text>
</g>
<!-- \\Nova\\Plugins\\Security&#45;&gt;\\Phalcon\\Mvc\\User\\Plugin -->
<g id="edge61" class="edge"><title>\\Nova\\Plugins\\Security&#45;&gt;\\Phalcon\\Mvc\\User\\Plugin</title>
<path fill="none" stroke="black" d="M754.075,-264.665C734.605,-261.061 710.183,-253.57 694,-238 628.025,-174.525 691.564,-104.52 622,-45 616.686,-40.4533 610.813,-36.6004 604.584,-33.3411"/>
<polygon fill="none" stroke="black" points="605.768,-30.0318 595.226,-28.9791 602.811,-36.3763 605.768,-30.0318"/>
</g>
<!-- \\Nova\\Http\\StatusCode -->
<g id="node51" class="node"><title>\\Nova\\Http\\StatusCode</title>
<polygon fill="none" stroke="black" points="825,-204 745,-204 745,-168 825,-168 825,-204"/>
<text text-anchor="middle" x="785" y="-183.1" font-family="Times Roman,serif" font-size="11.00">StatusCode</text>
</g>
<!-- \\Nova\\Object -->
<g id="node52" class="node"><title>\\Nova\\Object</title>
<polygon fill="none" stroke="black" points="812,-150 758,-150 758,-114 812,-114 812,-150"/>
<text text-anchor="middle" x="785" y="-129.1" font-family="Times Roman,serif" font-size="11.00">Object</text>
</g>
</g>
</svg>
